<?xml version="1.0" encoding="UTF-8" standalone="no"?>
<!DOCTYPE svg PUBLIC "-//W3C//DTD SVG 1.1//EN"
 "http://www.w3.org/Graphics/SVG/1.1/DTD/svg11.dtd">
<!-- Generated by graphviz version 2.43.0 (0)
 -->
<!-- Title: G Pages: 1 -->
<svg width="669pt" height="152pt"
 viewBox="0.00 0.00 669.00 152.00" xmlns="http://www.w3.org/2000/svg" xmlns:xlink="http://www.w3.org/1999/xlink">
<g id="graph0" class="graph" transform="scale(1 1) rotate(0) translate(4 148)">
<title>G</title>
<polygon fill="white" stroke="transparent" points="-4,4 -4,-148 665,-148 665,4 -4,4"/>
<!-- data.aws_key_pair.key -->
<g id="node1" class="node">
<title>data.aws_key_pair.key</title>
<polygon fill="none" stroke="black" points="386,-144 216,-144 216,-108 386,-108 386,-144"/>
<text text-anchor="middle" x="301" y="-122.3" font-family="sans-serif" font-size="14.00">data.aws_key_pair.key</text>
</g>
<!-- aws_instance.public_instance -->
<g id="node2" class="node">
<title>aws_instance.public_instance</title>
<polygon fill="none" stroke="black" points="661,-117 440,-117 440,-81 661,-81 661,-117"/>
<text text-anchor="middle" x="550.5" y="-95.3" font-family="sans-serif" font-size="14.00">aws_instance.public_instance</text>
</g>
<!-- aws_instance.public_instance&#45;&gt;data.aws_key_pair.key -->
<g id="edge1" class="edge">
<title>aws_instance.public_instance&#45;&gt;data.aws_key_pair.key</title>
<path fill="none" stroke="black" d="M439.86,-110.96C425.4,-112.54 410.68,-114.14 396.5,-115.69"/>
<polygon fill="black" stroke="black" points="395.84,-112.24 386.28,-116.81 396.6,-119.2 395.84,-112.24"/>
</g>
<!-- aws_subnet.public_subnet -->
<g id="node4" class="node">
<title>aws_subnet.public_subnet</title>
<polygon fill="none" stroke="black" points="401,-90 201,-90 201,-54 401,-54 401,-90"/>
<text text-anchor="middle" x="301" y="-68.3" font-family="sans-serif" font-size="14.00">aws_subnet.public_subnet</text>
</g>
<!-- aws_instance.public_instance&#45;&gt;aws_subnet.public_subnet -->
<g id="edge2" class="edge">
<title>aws_instance.public_instance&#45;&gt;aws_subnet.public_subnet</title>
<path fill="none" stroke="black" d="M439.86,-87.04C430.27,-85.99 420.55,-84.93 410.96,-83.89"/>
<polygon fill="black" stroke="black" points="411.34,-80.41 401.02,-82.8 410.58,-87.37 411.34,-80.41"/>
</g>
<!-- aws_subnet.private_subnet -->
<g id="node3" class="node">
<title>aws_subnet.private_subnet</title>
<polygon fill="none" stroke="black" points="404,-36 198,-36 198,0 404,0 404,-36"/>
<text text-anchor="middle" x="301" y="-14.3" font-family="sans-serif" font-size="14.00">aws_subnet.private_subnet</text>
</g>
<!-- aws_vpc.vpc_virginia -->
<g id="node5" class="node">
<title>aws_vpc.vpc_virginia</title>
<polygon fill="none" stroke="black" points="162,-63 0,-63 0,-27 162,-27 162,-63"/>
<text text-anchor="middle" x="81" y="-41.3" font-family="sans-serif" font-size="14.00">aws_vpc.vpc_virginia</text>
</g>
<!-- aws_subnet.private_subnet&#45;&gt;aws_vpc.vpc_virginia -->
<g id="edge3" class="edge">
<title>aws_subnet.private_subnet&#45;&gt;aws_vpc.vpc_virginia</title>
<path fill="none" stroke="black" d="M197.7,-30.67C189.21,-31.72 180.66,-32.78 172.26,-33.82"/>
<polygon fill="black" stroke="black" points="171.61,-30.37 162.11,-35.08 172.47,-37.32 171.61,-30.37"/>
</g>
<!-- aws_subnet.public_subnet&#45;&gt;aws_vpc.vpc_virginia -->
<g id="edge4" class="edge">
<title>aws_subnet.public_subnet&#45;&gt;aws_vpc.vpc_virginia</title>
<path fill="none" stroke="black" d="M200.89,-59.72C191.39,-58.55 181.79,-57.36 172.38,-56.19"/>
<polygon fill="black" stroke="black" points="172.61,-52.7 162.26,-54.94 171.75,-59.64 172.61,-52.7"/>
</g>
</g>
</svg>
